<?xml version="1.0" encoding="UTF-8"?>
<!DOCTYPE svg PUBLIC "-//W3C//DTD SVG 1.1//EN" "http://www.w3.org/Graphics/SVG/1.1/DTD/svg11.dtd">
<!-- Creator: CorelDRAW -->
<svg xmlns="http://www.w3.org/2000/svg" xml:space="preserve" width="215.9mm" height="279.4mm" style="shape-rendering:geometricPrecision; text-rendering:geometricPrecision; image-rendering:optimizeQuality; fill-rule:evenodd; clip-rule:evenodd"
viewBox="0 0 215.9 279.4"
 version="1.1"
 xmlns:xlink="http://www.w3.org/1999/xlink">
 <defs>
  <style type="text/css">
   <![CDATA[
    .fil0 {fill:#131516}
    .fil1 {fill:#1F1A17;fill-rule:nonzero}
   ]]>
  </style>
 </defs>
 <g id="Layer_x0020_1">
  <metadata id="CorelCorpID_0Corel-Layer"/>
  <g id="_195377808">
   <g>
    <g>
     <g>
      <path id="_195124504" class="fil0" d="M101.21 191.698l44.8994 -6.0329 13.8477 -58.4699 -62.4364 -6.1216 -8.9422 46.9252 -0.0074 0 -37.7872 5.6041 50.4261 18.0951zm-1.1275 -66.499l53.5903 6.2991 -11.6593 49.2578 -49.9454 -14.1249 8.0144 -41.432zm-3.948 58.5513l-7.4747 0.8871 -12.3764 -4.7243 5.9627 -0.7911 13.8884 4.6283z"/>
      <polygon id="_195378000" class="fil0" points="162.862,128.848 149.063,187.713 101.043,194.733 101.043,194.718 49.9407,176.017 49.9407,178.919 100.692,198.334 151.673,190.231 165.96,130.999 "/>
      <path id="_199050328" class="fil0" d="M58.3025 133.402l18.7679 -6.1291c0.8391,0.3734 1.9149,0.4288 2.9721,0.085 1.0609,-0.3475 1.8853,-1.0239 2.3511,-1.8187l18.291 -5.9738c0,0 -7.9035,-24.2204 -8.3175,-25.481 -0.1848,-0.5656 -0.9426,-0.7245 -2.0553,-0.6136l-0.865 -2.669 -0.4325 -0.0259c-0.1553,-0.0074 -3.6893,-0.1996 -7.8739,1.1608 -4.4803,1.4602 -7.896,4.0885 -10.162,7.811 -4.0183,-1.6672 -8.3286,-1.7744 -12.8089,-0.3069 -4.1883,1.3567 -6.9276,3.608 -7.0421,3.7004l-0.3401 0.2699 0.8132 2.4767c-1.1866,0.6543 -1.8446,1.3382 -1.6154,2.0295 1.1755,3.6042 8.3174,25.4847 8.3174,25.4847zm23.2372 -40.2492c3.1274,-1.0166 5.9257,-1.1163 6.9645,-1.1127l8.0809 24.7528c-1.9482,-0.1293 -4.0331,0.1664 -6.2289,0.8836 -5.3712,1.7522 -9.8109,5.4784 -11.1269,6.6539l-3.2124 -9.8294 0.9796 0.5508 -4.8278 -14.7644c2.1034,-3.3788 5.2418,-5.789 9.371,-7.1346zm-22.9747 7.5005c4.1218,-1.3492 8.0809,-1.2568 11.7701,0.2329l4.8242 14.7682 0.4546 -1.0203 3.2161 9.8478c-1.7743,-0.1404 -7.8073,-0.4251 -13.1822,1.3272 -2.1182,0.6949 -3.8999,1.6339 -5.2936,2.802l-8.0735 -24.7454c0.8354,-0.621 3.1421,-2.1883 6.2843,-3.2124z"/>
      <path id="_199050592" class="fil0" d="M53.4858 145.564c0.1516,2.7207 1.0683,19.2336 1.0683,19.2336l14.1656 -0.7874c0.5212,0.4067 1.2458,0.6506 2.0516,0.6062 0.8059,-0.048 1.5008,-0.3696 1.9666,-0.8317l13.8107 -0.7652c0,0 -1.0129,-18.2836 -1.0683,-19.2337 -0.0222,-0.4288 -0.5213,-0.6765 -1.316,-0.8058l-0.1072 -2.011 -0.2958 -0.0998c-0.0998,-0.0332 -2.5248,-0.8206 -5.678,-0.6469 -3.3862,0.1886 -6.24,1.3826 -8.506,3.5451 -2.4842,-1.9038 -5.4562,-2.7724 -8.8424,-2.5839 -3.1569,0.1737 -5.471,1.2273 -5.5746,1.2716l-0.2846 0.1331 0.1035 1.8668c-0.9426,0.2292 -1.523,0.5877 -1.4934,1.109zm24.6419 -4.4249c2.3621,-0.1294 4.3251,0.3216 5.0422,0.5175l1.0351 18.6866c-1.3234,-0.4584 -2.8353,-0.6359 -4.4878,-0.5398 -4.0515,0.2255 -7.8295,1.9888 -8.9569,2.5655l-0.4104 -7.4192 0.573 0.5619 -0.621 -11.1491c2.0886,-1.9592 4.7095,-3.0497 7.8258,-3.2234zm-17.3373 0.9685c3.12,-0.1738 5.8407,0.6174 8.1326,2.3363l0.6174 11.1454 0.5064 -0.6248 0.4141 7.434c-1.2051,-0.414 -5.338,-1.7337 -9.3969,-1.5082 -1.6044,0.085 -3.0091,0.414 -4.1994,0.9648l-1.0314 -18.6718c0.6913,-0.2846 2.5839,-0.95 4.9572,-1.0757z"/>
      <path id="_199050640" class="fil0" d="M139.015 119.887c0.78,0.1923 1.5452,0.0888 2.1256,-0.2218l13.441 3.29c0,0 4.3546,-17.7846 4.5764,-18.7124 0.1035,-0.4177 -0.2994,-0.7985 -1.0239,-1.1534l0.4842 -1.9629 -0.255 -0.1812c-0.0814,-0.0628 -2.1663,-1.5156 -5.2419,-2.2697 -3.2974,-0.8058 -6.373,-0.4991 -9.164,0.9131 -1.8187,-2.5433 -4.4101,-4.2401 -7.7038,-5.0459 -3.0756,-0.7579 -5.5967,-0.4214 -5.7039,-0.4104l-0.3105 0.0481 -0.451 1.8188c-0.9722,-0.0555 -1.6265,0.1146 -1.7523,0.621 -0.6543,2.6505 -4.5801,18.7162 -4.5801,18.7162l13.7774 3.3713c0.3733,0.5471 1.0018,0.987 1.7818,1.1792zm5.4488 -19.5109c2.5692,-1.268 5.3934,-1.5452 8.4247,-0.8058 2.2956,0.5618 4.0441,1.5673 4.68,1.9629l-4.4508 18.1764c-1.146,-0.8206 -2.5322,-1.4306 -4.1366,-1.8261 -3.9369,-0.9648 -8.0698,-0.3734 -9.3192,-0.1553l1.767 -7.2159 0.3844 0.7061 2.6505 -10.8423zm-17.9398 12.8089l4.4471 -18.1654c0.743,-0.0665 2.7503,-0.1479 5.0533,0.4214 3.0312,0.7431 5.4082,2.2956 7.0976,4.6061l-2.6579 10.8422 0.6727 -0.4546 -1.7707 7.2343c-1.0351,-0.7541 -4.606,-3.2198 -8.5503,-4.1846 -1.5563,-0.3844 -3.0017,-0.4805 -4.2918,-0.2994z"/>
     </g>
    </g>
   </g>
   <path id="_195158344" class="fil1" d="M49.6344 205.396l0.2888 0.3382c-1.2003,0.8126 -2.0953,1.6829 -2.6852,2.611 -0.7549,1.192 -1.1343,2.4913 -1.1343,3.8897 0,1.7034 0.5609,3.2749 1.6787,4.7145 0.4826,-0.396 0.7714,-0.7261 0.8703,-0.9982 0.0949,-0.2682 0.1444,-1.0064 0.1444,-2.2151l0 -5.4156 5.1766 -4.3146c1.2085,0.4744 2.1572,0.7838 2.8501,0.924 0.6931,0.1403 1.5055,0.2103 2.4419,0.2103l0.2805 0 0.1897 0.4332 -1.9922 1.9098c-1.3447,-0.1444 -2.8668,-0.6354 -4.5579,-1.4727l0.132 13.8056 0.4579 0.0124c1.1632,0 2.2191,-0.1981 3.176,-0.5899 0.9528,-0.3961 1.9428,-1.0353 2.9698,-1.9222l0.3588 0.3465c-0.7506,1.0311 -1.4849,1.8356 -2.2066,2.4047 -0.7218,0.5733 -1.5881,1.0312 -2.6028,1.3735 -1.0146,0.3425 -2.021,0.5116 -3.0233,0.5116 -1.4808,0 -2.875,-0.3589 -4.1867,-1.0766 -1.3075,-0.7178 -2.3346,-1.7448 -3.0728,-3.0812 -0.7425,-1.3364 -1.1137,-2.714 -1.1137,-4.133 0,-1.7489 0.5238,-3.3658 1.5714,-4.8588 0.8208,-1.1674 2.149,-2.3016 3.9886,-3.4071zm3.007 0.5403l-1.4148 1.225 0 5.5107c0,0.6847 -0.0371,1.1384 -0.1072,1.3653 -0.0825,0.297 -0.2681,0.6187 -0.5569,0.9569 -0.5899,0.6847 -1.4106,1.4643 -2.4666,2.3428 0.6476,0.7178 1.3364,1.2664 2.0748,1.6499 0.7341,0.3837 1.6003,0.6394 2.5902,0.7673l-0.1195 -13.8179zm17.6291 4.8961l0 9.0414c-1.2085,0.4908 -2.0829,0.895 -2.6192,1.2085 -0.4125,0.2352 -0.8085,0.5238 -1.1838,0.8704 -1.1714,-0.7095 -2.1366,-1.2004 -2.9037,-1.4768 -0.5776,-0.2103 -1.2334,-0.3298 -1.9675,-0.3588l-0.1197 -0.2433c0.3053,-0.2599 0.4991,-0.4908 0.5774,-0.7013 0.1114,-0.2721 0.1691,-0.7383 0.1691,-1.39l0 -6.6366c1.4726,-0.4909 2.7348,-1.1839 3.7824,-2.0789 1.1426,0.759 2.5656,1.3446 4.265,1.7654zm-5.6055 7.87l3.1514 1.2909 0 -7.6884c-0.9901,-0.4578 -1.6913,-0.759 -2.0997,-0.9075 -0.2927,-0.103 -0.6392,-0.1897 -1.0517,-0.2639l0 7.5689zm16.3256 -9.6354l2.1613 1.786 -0.9774 0.895 0 6.348c0,0.7343 0.103,1.2581 0.3051,1.5716 0.132,0.2186 0.2764,0.3257 0.4331,0.3257 0.1114,0 0.3341,-0.1277 0.6641,-0.3876l0.2888 0.3754 -2.5492 1.9716c-0.6476,-0.4496 -1.0682,-0.858 -1.2622,-1.2127 -0.1978,-0.3589 -0.3051,-0.9323 -0.3216,-1.7119 -1.2498,0.8086 -2.5203,1.7819 -3.8153,2.9246 -0.7838,-0.6105 -1.2952,-1.1509 -1.5386,-1.6128 -0.2433,-0.4661 -0.363,-1.0766 -0.363,-1.8315l0 -5.9725c0,-0.4167 -0.0371,-0.693 -0.1114,-0.8208 -0.132,-0.2269 -0.3094,-0.3383 -0.5321,-0.3383 -0.1691,0 -0.4207,0.1362 -0.7548,0.4083l-0.2928 -0.3753 2.8419 -2.3428 2.1861 1.786 -0.895 0.825 0 6.418c0,0.4744 0.0618,0.825 0.1814,1.0478 0.1197,0.2185 0.4166,0.4991 0.8827,0.8373l2.2109 -1.6334 0 -6.5997 -0.8579 -0.895 2.1159 -1.786zm10.9636 0l1.8231 2.1862 -1.8231 1.6209 -1.522 -1.9222 -1.2003 1.089 0 7.0492 1.3776 0.9899 1.2456 -0.994 0.2764 0.3876 -3.0893 2.4791c-0.6642,-0.5899 -1.2169,-1.0105 -1.6665,-1.2704 -0.4454,-0.2558 -0.9362,-0.4579 -1.4684,-0.6023l0 -0.2639c0.3548,-0.2517 0.5858,-0.5032 0.693,-0.7549 0.1113,-0.2558 0.165,-0.7425 0.165,-1.4601l0 -4.9332c0,-0.6187 -0.0702,-1.0312 -0.2063,-1.2375 -0.136,-0.2062 -0.2886,-0.3092 -0.4536,-0.3092 -0.1815,0 -0.4249,0.1607 -0.7384,0.4826l-0.2929 -0.3506 2.5162 -2.1862c0.6847,0.5238 1.1508,0.9776 1.3982,1.3652 0.1609,0.2393 0.2434,0.5776 0.2434,1.0023l2.7223 -2.3675zm9.3425 4.4835l2.7966 1.4686 0 5.0856c-0.6765,0.0661 -1.2911,0.2311 -1.8355,0.495 -0.5486,0.264 -1.1714,0.7178 -1.8602,1.353 -0.5982,-0.3548 -1.1179,-0.6022 -1.5551,-0.7384 -0.4413,-0.1361 -0.9033,-0.2062 -1.3982,-0.2062 -0.7549,0 -1.4272,0.231 -2.017,0.6888 -0.2187,0.1691 -0.3754,0.2558 -0.4702,0.2558 -0.0908,0 -0.1774,-0.0454 -0.2682,-0.132 -0.0867,-0.0908 -0.132,-0.1775 -0.132,-0.2682 0,-0.0949 0.0867,-0.2268 0.2558,-0.3876 0.0948,-0.095 0.2598,-0.2806 0.4949,-0.5568l1.0973 -1.3654 1.5549 -2.0705 -2.6398 -1.4231 0 -4.5084c0.8291,-0.2557 1.4808,-0.5444 1.951,-0.862 0.4703,-0.3177 0.9239,-0.7549 1.3611,-1.3117 1.0312,0.4371 1.8603,0.7425 2.4872,0.9197 0.4538,0.1197 0.8827,0.1816 1.2952,0.1816 0.4496,0 0.8002,-0.099 1.0518,-0.297 0.2516,-0.1979 0.3754,-0.4043 0.3754,-0.6228 0,-0.1444 -0.0825,-0.2888 -0.2434,-0.4332 -0.3135,-0.2845 -0.4701,-0.5568 -0.4701,-0.8248 0,-0.2475 0.07,-0.4496 0.2062,-0.5981 0.136,-0.1485 0.2886,-0.2227 0.4577,-0.2227 0.227,0 0.4291,0.103 0.6105,0.3092 0.1815,0.2064 0.2723,0.4785 0.2723,0.8167 0,0.3465 -0.0743,0.6847 -0.2187,1.0148 -0.1444,0.33 -0.4206,0.7589 -0.8332,1.2827l-2.3263 2.9574zm-3.5348 0.8332l1.654 0.8581 2.6315 -3.502c-0.5361,0.1526 -1.0064,0.231 -1.3983,0.231 -0.9899,0 -1.9551,-0.3299 -2.8872,-0.9899l0 3.4028zm2.0789 1.1014l-2.9121 3.902c0.3547,-0.1197 0.6847,-0.2105 0.9899,-0.264 0.3053,-0.0578 0.5815,-0.0866 0.8332,-0.0866 0.928,0 1.8891,0.3051 2.8872,0.9197l0 -3.5018 -1.7982 -0.9693zm11.6234 -6.4181l3.407 3.9762 -5.4116 3.7949 0 2.1984 2.8048 1.1137 1.8974 -1.2911 0.2639 0.363 -3.9142 2.7306c-0.8004,-0.429 -1.4562,-0.7343 -1.9718,-0.9199 -0.5155,-0.1856 -1.2497,-0.3753 -2.1984,-0.5775l0 -0.3011c0.2723,-0.1609 0.4579,-0.3588 0.5487,-0.598 0.0948,-0.2393 0.1401,-0.7508 0.1401,-1.5426l0 -6.9173c0.759,-0.2721 1.386,-0.5238 1.8851,-0.7506 0.3629,-0.1691 1.2126,-0.594 2.549,-1.2787zm-1.8355 1.3901l-0.1691 0.0865 0 5.4735 3.176 -2.2273 -3.0069 -3.3327zm12.6588 3.0934l2.7966 1.4686 0 5.0856c-0.6765,0.0661 -1.2911,0.2311 -1.8355,0.495 -0.5486,0.264 -1.1714,0.7178 -1.8602,1.353 -0.5982,-0.3548 -1.1179,-0.6022 -1.5551,-0.7384 -0.4413,-0.1361 -0.9033,-0.2062 -1.3982,-0.2062 -0.7549,0 -1.4272,0.231 -2.017,0.6888 -0.2187,0.1691 -0.3754,0.2558 -0.4702,0.2558 -0.0908,0 -0.1774,-0.0454 -0.2682,-0.132 -0.0867,-0.0908 -0.132,-0.1775 -0.132,-0.2682 0,-0.0949 0.0867,-0.2268 0.2558,-0.3876 0.0948,-0.095 0.2598,-0.2806 0.4949,-0.5568l1.0973 -1.3654 1.5549 -2.0705 -2.6398 -1.4231 0 -4.5084c0.8291,-0.2557 1.4808,-0.5444 1.951,-0.862 0.4703,-0.3177 0.9239,-0.7549 1.3611,-1.3117 1.0312,0.4371 1.8603,0.7425 2.4872,0.9197 0.4538,0.1197 0.8827,0.1816 1.2952,0.1816 0.4496,0 0.8002,-0.099 1.0518,-0.297 0.2516,-0.1979 0.3754,-0.4043 0.3754,-0.6228 0,-0.1444 -0.0825,-0.2888 -0.2434,-0.4332 -0.3135,-0.2845 -0.4702,-0.5568 -0.4702,-0.8248 0,-0.2475 0.0701,-0.4496 0.2063,-0.5981 0.136,-0.1485 0.2886,-0.2227 0.4577,-0.2227 0.227,0 0.4291,0.103 0.6105,0.3092 0.1815,0.2064 0.2723,0.4785 0.2723,0.8167 0,0.3465 -0.0743,0.6847 -0.2187,1.0148 -0.1444,0.33 -0.4206,0.7589 -0.8332,1.2827l-2.3263 2.9574zm-3.5348 0.8332l1.654 0.8581 2.6315 -3.502c-0.5361,0.1526 -1.0064,0.231 -1.3983,0.231 -0.9899,0 -1.9551,-0.3299 -2.8872,-0.9899l0 3.4028zm2.0789 1.1014l-2.9121 3.902c0.3547,-0.1197 0.6847,-0.2105 0.9899,-0.264 0.3053,-0.0578 0.5815,-0.0866 0.8332,-0.0866 0.928,0 1.8891,0.3051 2.8872,0.9197l0 -3.5018 -1.7982 -0.9693zm28.642 -11.8421l0.2268 0.5528c-0.5816,0.2845 -1.0105,0.565 -1.2869,0.8414 -0.2764,0.2763 -0.4742,0.5898 -0.5856,0.9321 -0.1114,0.3424 -0.1693,0.8497 -0.1693,1.5261 0,0.2187 0.0043,0.5075 0.0125,0.8704l0.2062 9.0291c0.0165,0.9899 0.1197,1.6416 0.3135,1.9467 0.1403,0.2187 0.3053,0.326 0.4991,0.326 0.2309,0 0.594,-0.2352 1.089,-0.7013l0.3463 0.4455 -2.2479 1.9263 -0.7507 0.6146c-0.6351,-0.297 -1.0889,-0.693 -1.357,-1.1839 -0.2723,-0.4908 -0.4207,-1.2787 -0.4538,-2.3593l-4.6774 3.5432c-2.6027,-1.7159 -4.3763,-2.5739 -5.3167,-2.5739 -0.2352,0 -0.4331,0.0742 -0.594,0.2186 -0.1196,0.1032 -0.1815,0.2517 -0.1815,0.4455 0,0.2103 0.0783,0.4414 0.231,0.6888 0.2022,0.3382 0.3011,0.5609 0.3011,0.6641 0,0.1526 -0.0577,0.2846 -0.1691,0.3918 -0.1114,0.1114 -0.2476,0.1651 -0.4124,0.1651 -0.1981,0 -0.359,-0.0825 -0.4826,-0.2434 -0.1775,-0.2145 -0.2641,-0.4991 -0.2641,-0.8456 0,-0.3835 0.1113,-0.8167 0.3341,-1.2993 0.2186,-0.4784 0.5486,-0.9981 0.9817,-1.5633 0.0907,-0.1195 0.1691,-0.235 0.2433,-0.3382l1.7283 -2.3593c-1.1714,-0.8785 -1.9881,-1.7201 -2.4624,-2.5243 -0.4703,-0.8043 -0.7053,-1.7077 -0.7053,-2.7059 0,-1.1631 0.297,-2.2355 0.8868,-3.2297 0.594,-0.9898 1.4849,-1.7694 2.6727,-2.3428 1.1879,-0.5733 2.4089,-0.8579 3.667,-0.8579 1.9263,0 3.7824,0.6682 5.5725,2.0046 0.433,-0.4579 0.8538,-0.8332 1.2539,-1.1302 0.4041,-0.2928 0.9198,-0.5857 1.5509,-0.8744zm-5.9478 2.8048c-1.0148,-0.4991 -2.0253,-0.7508 -3.0359,-0.7508 -1.0682,0 -2.0789,0.2352 -3.0192,0.7054 -0.9446,0.4703 -1.6499,1.0808 -2.116,1.8232 -0.4661,0.7466 -0.7013,1.5096 -0.7013,2.2892 0,1.654 0.8951,3.1142 2.6811,4.3846l4.0381 -5.5148c-0.6023,-0.3341 -1.1467,-0.4991 -1.6293,-0.4991 -0.6723,0 -1.2167,0.3135 -1.6458,0.9405 -0.0783,0.1279 -0.1607,0.1938 -0.2391,0.1938 -0.0495,0 -0.095,-0.0247 -0.1403,-0.0743 -0.0453,-0.0453 -0.0661,-0.1072 -0.0661,-0.1773 0,-0.2516 0.1279,-0.598 0.3796,-1.0394 0.2558,-0.4414 0.6311,-0.8002 1.1261,-1.0765 0.4949,-0.2723 1.0146,-0.4084 1.5632,-0.4084 0.5651,0 1.2045,0.1361 1.9221,0.4084l0.8828 -1.2045zm1.5591 1.2457c-0.2352,-0.2599 -0.3918,-0.4249 -0.4702,-0.495 -0.0578,-0.0578 -0.2598,-0.2063 -0.6023,-0.4496l-5.2755 7.2018 6.4924 0 -0.1444 -6.2572zm-7.6432 8.0226l-1.1053 1.5096 6.1375 2.6481 2.8543 -2.1201 -0.0495 -2.0376 -7.837 0zm13.5416 -4.7889l2.5531 -1.8602c0.6517,0.4496 1.0849,0.8703 1.2952,1.2581 0.2146,0.3877 0.3217,0.9197 0.3217,1.5963l3.1307 -2.8544c1.0519,0.7672 1.7572,1.4231 2.1119,1.9716 0.2269,0.3547 0.3382,0.8828 0.3382,1.5838l0 6.7688c-1.0559,0.4744 -2.2438,1.3282 -3.5637,2.5615 -0.4785,-0.3052 -1.1467,-0.6601 -2.0171,-1.0642l0 0.8579c0,1.0064 0.0991,1.7283 0.3012,2.1656 0.202,0.433 0.5651,0.8167 1.0889,1.1465l-0.1567 0.3259c-0.895,-0.3134 -1.5632,-0.6186 -2.0046,-0.9074 -0.3135,-0.2103 -0.594,-0.495 -0.8457,-0.8579 -0.5815,0.5156 -1.1342,0.8661 -1.6499,1.0517l-0.1566 -0.2434c0.3465,-0.3298 0.5898,-0.6723 0.7342,-1.0188 0.1402,-0.3505 0.2103,-0.8373 0.2103,-1.4559l0 -1.7654c-0.4495,-0.0867 -0.9198,-0.132 -1.4024,-0.132 -0.0413,0 -0.1031,0.0041 -0.1938,0.0123l0 -1.0146c0.5815,-0.1362 1.1136,-0.2311 1.5962,-0.2764l0 -6.022c0,-0.6519 -0.0907,-1.1055 -0.2682,-1.353 -0.1813,-0.2516 -0.3669,-0.3754 -0.5526,-0.3754 -0.1484,0 -0.3383,0.1032 -0.5774,0.3135l-0.2929 -0.4125zm4.17 1.621l0 6.2366c0.9405,0.1939 1.584,0.3424 1.9263,0.4414 0.3424,0.1032 0.7425,0.2558 1.2003,0.4661l0 -6.777c0,-0.3712 -0.0124,-0.5898 -0.0412,-0.6557 -0.0289,-0.0702 -0.1485,-0.194 -0.3548,-0.3713 -0.4661,-0.4001 -0.8249,-0.6929 -1.0848,-0.8703l-1.6458 1.5302zm6.9213 -1.621l2.5532 -1.8602c0.6517,0.4496 1.0849,0.8703 1.2952,1.2581 0.2145,0.3877 0.3217,0.9197 0.3217,1.5963l3.1307 -2.8544c1.0518,0.7672 1.7572,1.4231 2.1119,1.9716 0.2268,0.3547 0.3382,0.8828 0.3382,1.5838l0 6.7688c-1.056,0.4744 -2.2439,1.3282 -3.5638,2.5615 -0.4785,-0.3052 -1.1467,-0.6601 -2.017,-1.0642l0 0.8579c0,1.0064 0.099,1.7283 0.3012,2.1656 0.202,0.433 0.565,0.8167 1.0888,1.1465l-0.1567 0.3259c-0.895,-0.3134 -1.5632,-0.6186 -2.0046,-0.9074 -0.3135,-0.2103 -0.594,-0.495 -0.8456,-0.8579 -0.5816,0.5156 -1.1343,0.8661 -1.6499,1.0517l-0.1567 -0.2434c0.3465,-0.3298 0.5899,-0.6723 0.7343,-1.0188 0.1401,-0.3505 0.2103,-0.8373 0.2103,-1.4559l0 -1.7654c-0.4496,-0.0867 -0.9199,-0.132 -1.4025,-0.132 -0.0412,0 -0.103,0.0041 -0.1938,0.0123l0 -1.0146c0.5815,-0.1362 1.1137,-0.2311 1.5963,-0.2764l0 -6.022c0,-0.6519 -0.0908,-1.1055 -0.2682,-1.353 -0.1814,-0.2516 -0.367,-0.3754 -0.5526,-0.3754 -0.1485,0 -0.3384,0.1032 -0.5775,0.3135l-0.2929 -0.4125zm4.1701 1.621l0 6.2366c0.9404,0.1939 1.5839,0.3424 1.9262,0.4414 0.3425,0.1032 0.7425,0.2558 1.2004,0.4661l0 -6.777c0,-0.3712 -0.0124,-0.5898 -0.0412,-0.6557 -0.029,-0.0702 -0.1485,-0.194 -0.3549,-0.3713 -0.4661,-0.4001 -0.8249,-0.6929 -1.0847,-0.8703l-1.6458 1.5302z"/>
   <path id="_195377232" class="fil1" d="M67.1707 57.1321l-0.9404 0 -1.7386 25.3237 -2.976 0 -1.3983 -21.4258 -1.3365 21.4258 -2.9759 0 -1.9365 -25.3237 -0.9281 0 0 -0.6682 4.8259 0 0 0.6682 -0.928 0 1.3797 21.135 1.4106 -21.8032 2.976 0 1.4477 21.8032 1.2499 -21.135 -0.9219 0 0 -0.6682 2.7904 0 0 0.6682zm-4.1701 24.6555l-1.7386 -24.6555 -0.7424 0 1.7386 24.6555 0.7424 0zm-5.7107 0l-1.9365 -24.6555 -0.7425 0 1.9365 24.6555 0.7425 0zm19.9039 0.6682l-9.2807 0 0 -0.6682 0.9219 0 0 -24.6555 -0.9219 0 0 -0.6682 9.2807 0 0 7.7957 -2.976 0 0 -7.1275 -2.4068 0 0 11.2604 3.5144 0 0 0.6682 -3.5144 0 0 12.7269 2.4068 0 0 -7.1275 2.976 0 0 7.7957zm-1.4849 -18.8521l0 -6.4716 -0.7486 0 0 6.4716 0.7486 0zm-5.389 18.1839l0 -24.6555 -0.7424 0 0 24.6555 0.7424 0zm5.389 0l0 -6.4532 -0.7486 0 0 6.4532 0.7486 0zm12.0525 0.6682l-9.0827 0 0 -0.6682 0.9219 0 0 -24.6555 -0.9219 0 0 -0.6682 4.8198 0 0 0.6682 -0.922 0 0 24.6555 2.2274 0 0 -7.1275 2.9575 0 0 7.7957zm-6.6759 -0.6682l0 -24.6555 -0.7425 0 0 24.6555 0.7425 0zm5.2033 0l0 -6.4532 -0.7425 0 0 6.4532 0.7425 0zm12.0526 -2.9388c0,1.0394 -0.4331,1.9304 -1.3055,2.6728 -0.8662,0.7425 -1.9181,1.1137 -3.1554,1.1137 -1.2189,0 -2.2645,-0.3712 -3.1431,-1.1137 -0.8724,-0.7424 -1.3116,-1.6334 -1.3116,-2.6728l0 -18.7779c0,-1.0394 0.4392,-1.9304 1.3116,-2.6728 0.8786,-0.7425 1.9242,-1.1137 3.1431,-1.1137 1.2373,0 2.2892,0.3712 3.1554,1.1137 0.8724,0.7424 1.3055,1.6334 1.3055,2.6728l0 4.1887 -2.9698 0 0 -5.8221c0,-0.4083 -0.1485,-0.761 -0.4394,-1.0518 -0.2907,-0.2907 -0.6372,-0.4331 -1.0517,-0.4331 -0.4083,0 -0.761,0.1424 -1.0457,0.4331 -0.2907,0.2908 -0.4392,0.6435 -0.4392,1.0518l0 22.0447c0,0.4084 0.1485,0.761 0.4392,1.0517 0.2847,0.2847 0.6374,0.4332 1.0457,0.4332 0.4145,0 0.761,-0.1485 1.0517,-0.4332 0.2909,-0.2907 0.4394,-0.6433 0.4394,-1.0517l0 -5.8221 2.9698 0 0 4.1887zm-1.4849 -15.2451l0 -4.1329c0,-0.99 -0.4455,-1.7696 -1.3426,-2.3387 0.4021,0.4577 0.6001,1.0703 0.6001,1.8313l0 4.6403 0.7425 0zm-5.4571 17.7446c-0.3279,-0.4702 -0.4887,-1.0703 -0.4887,-1.7942l0 -20.1885c0,-0.7178 0.1608,-1.3055 0.4887,-1.7819 -0.8228,0.5568 -1.2311,1.2993 -1.2311,2.2335l0 19.3038c0,0.9157 0.4083,1.6582 1.2311,2.2273zm5.4571 -1.8994l0 -4.1145 -0.7425 0 0 4.6404c0,0.7487 -0.198,1.3488 -0.6001,1.8128 0.8971,-0.5692 1.3426,-1.3488 1.3426,-2.3387zm12.6155 -0.6001c0,1.0394 -0.433,1.9304 -1.3054,2.6728 -0.8662,0.7425 -1.9181,1.1137 -3.1554,1.1137 -1.2189,0 -2.2645,-0.3712 -3.1432,-1.1137 -0.8724,-0.7424 -1.3115,-1.6334 -1.3115,-2.6728l0 -18.7779c0,-1.0394 0.4391,-1.9304 1.3115,-2.6728 0.8787,-0.7425 1.9243,-1.1137 3.1432,-1.1137 1.2373,0 2.2892,0.3712 3.1554,1.1137 0.8724,0.7424 1.3054,1.6334 1.3054,2.6728l0 18.7779zm-1.4849 0.6001l0 -19.9781c0,-0.99 -0.4454,-1.7696 -1.3425,-2.3387 0.402,0.4577 0.6001,1.0703 0.6001,1.8313l0 21.0114c0,0.7487 -0.1981,1.3488 -0.6001,1.8128 0.8971,-0.5692 1.3425,-1.3488 1.3425,-2.3387zm-1.4849 1.0333l0 -22.0447c0,-0.4083 -0.1485,-0.761 -0.4393,-1.0518 -0.2907,-0.2907 -0.6372,-0.4331 -1.0517,-0.4331 -0.4084,0 -0.761,0.1424 -1.0457,0.4331 -0.2907,0.2908 -0.4392,0.6435 -0.4392,1.0518l0 22.0447c0,0.4084 0.1485,0.761 0.4392,1.0517 0.2847,0.2847 0.6373,0.4332 1.0457,0.4332 0.4145,0 0.761,-0.1485 1.0517,-0.4332 0.2908,-0.2907 0.4393,-0.6433 0.4393,-1.0517zm-3.9721 0.8661c-0.328,-0.4702 -0.4887,-1.0703 -0.4887,-1.7942l0 -20.1885c0,-0.7178 0.1607,-1.3055 0.4887,-1.7819 -0.8228,0.5568 -1.2312,1.2993 -1.2312,2.2335l0 19.3038c0,0.9157 0.4084,1.6582 1.2312,2.2273zm21.2651 1.1075l-4.8259 0 0 -0.6682 0.928 0 0 -17.7136 -2.085 18.3818 -2.3758 0 -2.444 -18.3818 0 17.7136 0.922 0 0 0.6682 -2.772 0 0 -0.6682 0.922 0 0 -24.6555 -0.922 0 0 -0.6682 3.935 0 2.5554 20.2441 2.2273 -20.2441 3.935 0 0 0.6682 -0.928 0 0 24.6555 0.928 0 0 0.6682zm-2.4129 -0.6682l0 -24.6555 -0.7425 0 0 24.6555 0.7425 0zm-4.3495 0l-3.4092 -24.6555 -0.8167 0 3.4092 24.6555 0.8167 0zm17.169 0.6682l-9.2806 0 0 -0.6682 0.9219 0 0 -24.6555 -0.9219 0 0 -0.6682 9.2806 0 0 7.7957 -2.9759 0 0 -7.1275 -2.4068 0 0 11.2604 3.5143 0 0 0.6682 -3.5143 0 0 12.7269 2.4068 0 0 -7.1275 2.9759 0 0 7.7957zm-1.4849 -18.8521l0 -6.4716 -0.7486 0 0 6.4716 0.7486 0zm-5.3889 18.1839l0 -24.6555 -0.7424 0 0 24.6555 0.7424 0zm5.3889 0l0 -6.4532 -0.7486 0 0 6.4532 0.7486 0zm19.6627 -17.528l-2.7409 0 0 -7.1275 -1.3425 0 0 24.6555 0.928 0 0 0.6682 -4.8198 0 0 -0.6682 0.9219 0 0 -24.6555 -1.3425 0 0 7.1275 -2.7348 0 0 -7.7957 11.1306 0 0 7.7957zm-1.2683 -0.6559l0 -6.4716 -0.7301 0 0 6.4716 0.7301 0zm-8.3774 0l0 -6.4716 -0.7425 0 0 6.4716 0.7425 0zm4.0774 18.1839l0 -24.6555 -0.7425 0 0 24.6555 0.7425 0zm16.1483 -2.9388c0,1.0394 -0.4331,1.9304 -1.3054,2.6728 -0.8663,0.7425 -1.9181,1.1137 -3.1555,1.1137 -1.2189,0 -2.2644,-0.3712 -3.1431,-1.1137 -0.8724,-0.7424 -1.3116,-1.6334 -1.3116,-2.6728l0 -18.7779c0,-1.0394 0.4392,-1.9304 1.3116,-2.6728 0.8787,-0.7425 1.9242,-1.1137 3.1431,-1.1137 1.2374,0 2.2892,0.3712 3.1555,1.1137 0.8723,0.7424 1.3054,1.6334 1.3054,2.6728l0 18.7779zm-1.4849 0.6001l0 -19.9781c0,-0.99 -0.4455,-1.7696 -1.3426,-2.3387 0.4021,0.4577 0.6001,1.0703 0.6001,1.8313l0 21.0114c0,0.7487 -0.198,1.3488 -0.6001,1.8128 0.8971,-0.5692 1.3426,-1.3488 1.3426,-2.3387zm-1.4849 1.0333l0 -22.0447c0,-0.4083 -0.1485,-0.761 -0.4394,-1.0518 -0.2906,-0.2907 -0.6372,-0.4331 -1.0517,-0.4331 -0.4083,0 -0.761,0.1424 -1.0457,0.4331 -0.2907,0.2908 -0.4392,0.6435 -0.4392,1.0518l0 22.0447c0,0.4084 0.1485,0.761 0.4392,1.0517 0.2847,0.2847 0.6374,0.4332 1.0457,0.4332 0.4145,0 0.7611,-0.1485 1.0517,-0.4332 0.2909,-0.2907 0.4394,-0.6433 0.4394,-1.0517zm-3.9721 0.8661c-0.328,-0.4702 -0.4888,-1.0703 -0.4888,-1.7942l0 -20.1885c0,-0.7178 0.1608,-1.3055 0.4888,-1.7819 -0.8229,0.5568 -1.2312,1.2993 -1.2312,2.2335l0 19.3038c0,0.9157 0.4083,1.6582 1.2312,2.2273z"/>
  </g>
 </g>
</svg>
