<?xml version="1.0" encoding="UTF-8"?>
<!DOCTYPE svg PUBLIC "-//W3C//DTD SVG 1.1//EN" "http://www.w3.org/Graphics/SVG/1.1/DTD/svg11.dtd">
<!-- Creator: CorelDRAW -->
<svg xmlns="http://www.w3.org/2000/svg" xml:space="preserve" width="215.9mm" height="279.4mm" style="shape-rendering:geometricPrecision; text-rendering:geometricPrecision; image-rendering:optimizeQuality; fill-rule:evenodd; clip-rule:evenodd"
viewBox="0 0 215.9 279.4">
 <defs>
  <style type="text/css">
   <![CDATA[
    .fil2 {fill:#484C38}
    .fil1 {fill:#7D8367}
    .fil0 {fill:#E18F34}
   ]]>
  </style>
 </defs>
 <g id="Layer_x0020_1">
  <metadata id="CorelCorpID_0Corel-Layer"/>
  <g id="_308380440">
   <path id="_195104912" class="fil0" d="M-2.4365 128.216c26.1299,26.7717 58.8422,53.1009 89.3228,62.5464 18.1044,5.6102 36.3007,8.6792 54.166,3.2704 16.9106,-5.1197 27.9219,-16.7167 36.3832,-30.2512l50.8956 20.0312c-20.1299,38.0412 -57.1842,68.2463 -117.734,65.2036 -34.4717,-1.7322 -61.1613,-17.9205 -82.3732,-41.4932 -20.3551,-22.6207 -30.3335,-50.7424 -30.66,-79.3072z"/>
   <path id="_308381232" class="fil1" d="M0.0747 179.871c11.4972,23.7712 28.8305,44.3347 55.5968,59.6848 18.8951,10.836 38.4023,16.0438 58.2832,16.7024 50.4046,1.6699 80.8115,-19.1931 105.587,-45.0848 -20.8596,38.1679 -54.0992,63.6526 -105.498,63.0004 -65.1067,-0.8261 -103.881,-45.7042 -113.969,-94.3028z"/>
   <path id="_308380416" class="fil2" d="M79.8724 163.403c-14.9,-10.7307 -19.4088,-44.7499 -8.0115,-63.111 11.1043,-18.9593 27.425,-30.0938 52.1565,-28.6125 19.0312,0.9024 33.8892,11.1946 45.2895,29.2665l42.3465 -17.331 8.175 12.099 -44.9625 18.639c-16.3374,-21.1998 -46.0578,-30.5404 -68.5065,-16.8405 -31.1625,19.0178 -32.2076,41.2733 -26.487,65.8905z"/>
   <path id="_308380704" class="fil0" d="M173.055 88.942l53.9616 -22.192c-21.6154,-36.122 -52.7106,-58.8934 -95.8928,-62.0208 -49.0643,-3.5533 -83.0022,15.529 -107.573,46.4864 -14.2455,17.9485 -22.569,38.7435 -25.3456,62.2544 27.3081,28.9595 52.2176,47.1256 76.0368,60.3856 -16.9233,-14.2968 -28.9676,-48.2278 -8.3662,-83.3132 11.7238,-19.9664 31.9695,-28.1003 53.8385,-28.4867 27.5841,-0.4873 42.2578,12.5074 53.3405,26.8863z"/>
  </g>
 </g>
</svg>
