<?xml version="1.0" encoding="UTF-8"?>
<!DOCTYPE svg PUBLIC "-//W3C//DTD SVG 1.1//EN" "http://www.w3.org/Graphics/SVG/1.1/DTD/svg11.dtd">
<!-- Creator: CorelDRAW -->
<svg xmlns="http://www.w3.org/2000/svg" xml:space="preserve" width="215.9mm" height="279.4mm" style="shape-rendering:geometricPrecision; text-rendering:geometricPrecision; image-rendering:optimizeQuality; fill-rule:evenodd; clip-rule:evenodd"
viewBox="0 0 215.9 279.4">
 <defs>
  <style type="text/css">
   <![CDATA[
    .fil2 {fill:#484C38}
    .fil1 {fill:#7D8367}
    .fil0 {fill:#E18F34}
   ]]>
  </style>
 </defs>
 <g id="Layer_x0020_1">
  <metadata id="CorelCorpID_0Corel-Layer"/>
  <g id="_308380440">
   <path id="_195104912" class="fil0" d="M22.1583 129.184c19.5314,20.0111 43.9828,39.6914 66.7662,46.7516 13.5325,4.1935 27.1337,6.4874 40.4875,2.4445 12.6401,-3.8268 20.8707,-12.4952 27.1953,-22.6118l38.043 14.9727c-15.0465,28.4346 -42.7435,51.0121 -88.003,48.7377 -25.7666,-1.2947 -45.7163,-13.395 -61.5715,-31.0149 -15.2149,-16.9083 -22.6734,-37.9284 -22.9175,-59.2798z"/>
   <path id="_308381232" class="fil1" d="M24.0354 167.795c8.5938,17.7682 21.5499,33.1388 41.5569,44.6126 14.1236,8.0996 28.7046,11.9922 43.565,12.4845 37.6759,1.2482 60.4042,-14.3463 78.9233,-33.6995 -15.5919,28.5293 -40.4375,47.5784 -78.8566,47.0909 -48.6653,-0.6175 -77.6478,-34.1625 -85.1886,-70.4885z"/>
   <path id="_308380416" class="fil2" d="M83.6818 155.485c-11.1373,-8.0208 -14.5075,-33.4492 -5.9884,-47.1736 8.3002,-14.1715 20.4994,-22.4942 38.9855,-21.3869 14.2252,0.6745 25.3311,8.3676 33.8525,21.8758l31.6528 -12.9544 6.1105 9.0436 -33.6081 13.9321c-12.2117,-15.8462 -34.4268,-22.828 -51.2066,-12.5878 -23.293,14.2153 -24.0742,30.8506 -19.7982,49.2512z"/>
   <path id="_308380704" class="fil0" d="M153.333 99.828l40.3347 -16.5879c-16.1569,-27.0001 -39.3996,-44.021 -71.677,-46.3587 -36.6741,-2.656 -62.0417,11.6075 -80.4075,34.7472 -10.6481,13.416 -16.8697,28.9596 -18.9451,46.5333 20.412,21.6464 39.0311,35.225 56.8353,45.1365 -12.6497,-10.6865 -21.6525,-36.0489 -6.2535,-62.2742 8.7632,-14.9243 23.8962,-21.0041 40.2427,-21.2929 20.6182,-0.3643 31.5864,9.3489 39.8704,20.0967z"/>
  </g>
 </g>
</svg>
